<svg width="24" height="24" viewBox="0 0 24 24" fill="none" xmlns="http://www.w3.org/2000/svg">
<path d="M4.42644 20.4008L2.74194 1.5H21.2579L19.5712 20.3978L11.9887 22.5L4.42644 20.4008Z" fill="#1572B6"/>
<path d="M12 20.8934L18.1275 19.1947L19.569 3.04565H12V20.8934Z" fill="#33A9DC"/>
<path d="M12 9.89317H15.0675L15.279 7.51942H12V5.20117H17.8125L17.757 5.82292L17.1877 12.2114H12V9.89317Z" fill="white"/>
<path d="M12.0143 15.9136L12.0038 15.9166L9.4223 15.2191L9.2573 13.3704H6.93005L7.2548 17.0101L12.0031 18.3286L12.0143 18.3256V15.9136Z" fill="#EBEBEB"/>
<path d="M14.8702 12.1133L14.5912 15.2175L12.006 15.915V18.327L16.758 17.01L16.7932 16.6185L17.196 12.1133H14.8702Z" fill="white"/>
<path d="M12.0083 5.20117V7.51942H6.4088L6.3623 6.99817L6.25655 5.82292L6.20105 5.20117H12.0083ZM12.0001 9.89317V12.2114H9.4508L9.4043 11.6902L9.2993 10.5149L9.2438 9.89317H12.0001Z" fill="#EBEBEB"/>
</svg>
