<svg width="81" height="78" viewBox="0 0 81 78" fill="none" xmlns="http://www.w3.org/2000/svg">
<rect width="81" height="78" rx="39" fill="white"/>
<path d="M11.872 50.224C11.2107 50.224 10.656 50 10.208 49.552C9.76 49.104 9.536 48.5493 9.536 47.888C9.536 47.2267 9.76 46.672 10.208 46.224C10.656 45.776 11.2107 45.552 11.872 45.552C12.512 45.552 13.056 45.776 13.504 46.224C13.952 46.672 14.176 47.2267 14.176 47.888C14.176 48.5493 13.952 49.104 13.504 49.552C13.056 50 12.512 50.224 11.872 50.224ZM34.2788 40.752C34.2788 41.4133 34.2361 42.0107 34.1508 42.544H20.6788C20.7854 43.952 21.3081 45.0827 22.2468 45.936C23.1854 46.7893 24.3374 47.216 25.7028 47.216C27.6654 47.216 29.0521 46.3947 29.8628 44.752H33.7987C33.2654 46.3733 32.2948 47.7067 30.8868 48.752C29.5001 49.776 27.7721 50.288 25.7028 50.288C24.0174 50.288 22.5028 49.9147 21.1588 49.168C19.8361 48.4 18.7908 47.3333 18.0228 45.968C17.2761 44.5813 16.9028 42.9813 16.9028 41.168C16.9028 39.3547 17.2654 37.7653 17.9908 36.4C18.7374 35.0133 19.7721 33.9467 21.0948 33.2C22.4388 32.4533 23.9748 32.08 25.7028 32.08C27.3668 32.08 28.8494 32.4427 30.1508 33.168C31.4521 33.8933 32.4654 34.9173 33.1908 36.24C33.9161 37.5413 34.2788 39.0453 34.2788 40.752ZM30.4708 39.6C30.4494 38.256 29.9694 37.1787 29.0308 36.368C28.0921 35.5573 26.9294 35.152 25.5428 35.152C24.2841 35.152 23.2068 35.5573 22.3108 36.368C21.4148 37.1573 20.8814 38.2347 20.7108 39.6H30.4708ZM41.5168 26.32V50H37.8688V26.32H41.5168ZM49.9543 26.32V50H46.3063V26.32H49.9543ZM70.9038 40.752C70.9038 41.4133 70.8611 42.0107 70.7758 42.544H57.3038C57.4104 43.952 57.9331 45.0827 58.8718 45.936C59.8104 46.7893 60.9624 47.216 62.3278 47.216C64.2904 47.216 65.6771 46.3947 66.4878 44.752H70.4237C69.8904 46.3733 68.9198 47.7067 67.5118 48.752C66.1251 49.776 64.3971 50.288 62.3278 50.288C60.6424 50.288 59.1278 49.9147 57.7838 49.168C56.4611 48.4 55.4158 47.3333 54.6478 45.968C53.9011 44.5813 53.5278 42.9813 53.5278 41.168C53.5278 39.3547 53.8904 37.7653 54.6158 36.4C55.3624 35.0133 56.3971 33.9467 57.7198 33.2C59.0638 32.4533 60.5998 32.08 62.3278 32.08C63.9918 32.08 65.4744 32.4427 66.7758 33.168C68.0771 33.8933 69.0904 34.9173 69.8158 36.24C70.5411 37.5413 70.9038 39.0453 70.9038 40.752ZM67.0958 39.6C67.0744 38.256 66.5944 37.1787 65.6558 36.368C64.7171 35.5573 63.5544 35.152 62.1678 35.152C60.9091 35.152 59.8318 35.5573 58.9358 36.368C58.0398 37.1573 57.5064 38.2347 57.3358 39.6H67.0958Z" fill="#1B181A"/>
</svg>
