<svg width="24" height="24" viewBox="0 0 24 24" fill="none" xmlns="http://www.w3.org/2000/svg">
<path fill-rule="evenodd" clip-rule="evenodd" d="M20.4058 3.48819C18.1603 1.24001 15.1742 0.0013248 11.9934 0C5.43829 0 0.102009 5.33495 0.0993597 11.8927C0.0993597 13.9885 0.6465 16.034 1.68646 17.8384L0 24L6.3047 22.3453C8.04283 23.2926 9.99823 23.792 11.9881 23.7933H11.9934C18.5471 23.7933 23.8834 18.4584 23.8861 11.9006C23.8861 8.72378 22.6514 5.73637 20.4058 3.48819ZM11.9934 21.7863H11.9894C10.2155 21.7849 8.47604 21.3093 6.95783 20.4072L6.59748 20.1925L2.85626 21.1742L3.85383 17.527L3.61934 17.1535C2.62972 15.5796 2.10775 13.7607 2.10775 11.8927C2.1104 6.44248 6.54449 2.00839 11.9973 2.00839C14.6377 2.00972 17.119 3.03908 18.9856 4.90704C20.851 6.77633 21.879 9.259 21.8777 11.9006C21.875 17.3509 17.4409 21.7863 11.9934 21.7863ZM17.4158 14.382C17.1177 14.2323 15.6578 13.5142 15.3849 13.4149C15.1133 13.3155 14.9159 13.2665 14.7172 13.5633C14.5184 13.86 13.9488 14.529 13.7752 14.7278C13.6017 14.9265 13.4281 14.9503 13.1314 14.8019C12.8346 14.6536 11.8768 14.3396 10.7414 13.3274C9.8578 12.5392 9.26165 11.5668 9.0881 11.2687C8.91455 10.9706 9.06955 10.8103 9.21925 10.662C9.35306 10.5295 9.51601 10.3149 9.66438 10.1413C9.81276 9.96776 9.86178 9.84456 9.96114 9.64584C10.0605 9.44712 10.0115 9.27357 9.93597 9.12519C9.86178 8.97549 9.26695 7.51292 9.01921 6.91808C8.77942 6.3418 8.53433 6.41864 8.35151 6.41069C8.17929 6.40274 7.98057 6.40009 7.78317 6.40009C7.58446 6.40009 7.26253 6.47428 6.98962 6.77103C6.71671 7.06911 5.94966 7.78715 5.94966 9.24973C5.94966 10.7123 7.01479 12.1259 7.16317 12.3246C7.31155 12.5233 9.259 15.524 12.2398 16.8117C12.9499 17.1177 13.5036 17.3005 13.9342 17.4383C14.6456 17.6648 15.2934 17.6317 15.8061 17.5562C16.3771 17.4714 17.5641 16.8382 17.8119 16.144C18.0596 15.4498 18.0596 14.8549 17.9854 14.7304C17.9112 14.6059 17.7112 14.5304 17.4158 14.382Z" fill="#1B181A"/>
</svg>
